<svg xmlns="http://www.w3.org/2000/svg" viewBox="0 0 101.08 101.08"><defs><style>.cls-1{fill:#b22b2b;}.cls-2,.cls-3{fill:none;stroke:#fff;stroke-linecap:round;stroke-linejoin:round;}.cls-2{stroke-width:2.67px;}.cls-3{stroke-width:2.61px;}</style></defs><g id="Livello_2" data-name="Livello 2"><g id="grafica"><circle class="cls-1" cx="50.54" cy="50.54" r="50.54"/><line class="cls-2" x1="21.2" y1="30.48" x2="80.37" y2="30.48"/><polyline class="cls-3" points="29.23 31.65 33.52 80.29 67.55 80.29 71.85 31.65"/><path class="cls-2" d="M41.59,21.29H59.48A1.67,1.67,0,0,1,61.15,23v7.52a0,0,0,0,1,0,0H39.92a0,0,0,0,1,0,0V23A1.67,1.67,0,0,1,41.59,21.29Z"/><line class="cls-2" x1="50.7" y1="41.26" x2="50.7" y2="69.17"/><line class="cls-2" x1="59.23" y1="41.39" x2="57.05" y2="69.21"/><line class="cls-2" x1="42.01" y1="41.39" x2="44.19" y2="69.21"/></g></g></svg>