<svg xmlns="http://www.w3.org/2000/svg" viewBox="0 0 102.5 102.5"><defs><style>.cls-1{fill:#b22b2b;}.cls-2{fill:#fff;}</style></defs><g id="Livello_2" data-name="Livello 2"><g id="grafica"><circle class="cls-1" cx="51.25" cy="51.25" r="51.25"/><path class="cls-2" d="M71.1,24.13a.57.57,0,0,0,.16.11,2,2,0,0,1,1.3,2V37.76a2,2,0,0,1-1.51,2.07L59.59,43.66a2,2,0,1,1-1.24-3.73l7.7-2.57.84-.29c-.21-.23-.38-.42-.56-.6a21.24,21.24,0,0,0-17.51-6.32A21.66,21.66,0,1,0,72.14,56a22.31,22.31,0,0,0,.14-7.9,2,2,0,0,1,1.57-2.34,2,2,0,0,1,2.3,1.68A25.32,25.32,0,0,1,56.47,76.41c-1.07.23-2.17.32-3.26.47l-.45.09H49.67a4.37,4.37,0,0,0-.5-.09,24.69,24.69,0,0,1-9.25-2.58,25.33,25.33,0,0,1,7.69-47.71,24.81,24.81,0,0,1,20.3,6l.72.62v-.6c0-2,0-4,0-6a2.28,2.28,0,0,1,1.55-2.49Z"/></g></g></svg>